
<svg version="1.0" xmlns="http://www.w3.org/2000/svg"
 width="60" height="" viewBox="0 0 206.000000 226.000000">

<g transform="translate(0.000000,226.000000) scale(0.100000,-0.100000)"
fill="currentcolor" stroke="none">
<path d="M910 1981 c-89 -28 -188 -113 -248 -213 -57 -97 -85 -190 -90 -305
-5 -117 9 -173 63 -253 19 -28 32 -50 30 -50 -3 0 -20 14 -39 30 l-34 30 -48
-38 c-120 -95 -136 -121 -204 -328 -52 -159 -61 -196 -57 -236 12 -99 59 -155
184 -216 64 -32 75 -41 83 -72 5 -19 19 -42 32 -51 l21 -17 -21 -6 c-33 -11
-40 -55 -12 -78 21 -17 50 -18 429 -18 356 0 409 2 429 16 29 20 26 64 -5 79
-21 11 -21 12 -3 23 11 6 24 29 30 50 11 34 20 42 96 81 122 62 174 132 174
234 0 36 -97 342 -126 398 -19 37 -86 106 -145 148 l-43 31 -26 -25 c-40 -39
-42 -30 -4 32 45 75 58 122 57 213 -1 216 -129 442 -294 520 -53 25 -76 30
-134 29 -38 0 -81 -4 -95 -8z m206 -93 c61 -30 146 -123 183 -201 30 -63 61
-168 61 -206 0 -21 -2 -21 -46 10 -165 113 -463 113 -627 0 -40 -27 -47 -29
-47 -14 0 43 32 148 64 211 99 196 262 276 412 200z m-207 -395 c23 -15 23
-17 6 -30 -27 -19 -69 -16 -91 8 -16 17 -16 22 -4 29 23 15 63 12 89 -7z m271
7 c12 -7 12 -12 -4 -29 -22 -24 -64 -27 -91 -8 -17 13 -17 15 6 30 26 19 66
22 89 7z m-123 -95 c27 -14 72 -29 101 -34 29 -4 55 -11 59 -15 12 -12 -42
-110 -88 -157 -84 -86 -174 -85 -260 3 -37 39 -97 144 -87 154 3 2 32 9 65 15
32 6 77 21 99 34 50 30 53 30 111 0z m-201 -307 c58 -48 123 -72 171 -65 55 9
136 70 209 158 36 44 68 79 70 79 7 0 -45 -110 -68 -143 -12 -18 -49 -63 -81
-100 -57 -64 -58 -68 -31 -61 49 11 193 82 246 120 l50 36 57 -59 c55 -57 57
-61 115 -238 56 -176 58 -182 43 -217 -12 -28 -28 -42 -78 -67 -34 -17 -68
-31 -76 -31 -15 0 -15 -3 -3 125 18 183 16 213 -14 243 l-26 27 -433 0 c-397
0 -435 -1 -460 -18 -15 -9 -30 -29 -33 -44 -4 -14 -2 -94 5 -176 6 -83 9 -152
6 -155 -9 -10 -98 31 -131 60 -48 42 -45 78 19 273 51 156 53 161 109 217 l56
58 54 -36 c29 -20 75 -47 103 -61 50 -26 156 -65 161 -60 1 1 -29 38 -66 82
-63 72 -130 183 -130 215 0 6 25 -19 56 -57 31 -37 76 -85 100 -105z m568
-244 c9 -3 16 -9 16 -13 0 -3 -198 -6 -440 -6 -242 0 -440 3 -440 7 0 3 6 9
13 11 18 8 832 8 851 1z m-382 -241 c10 -9 18 -27 18 -40 0 -28 -33 -63 -60
-63 -26 0 -60 34 -60 62 0 50 63 76 102 41z"/>
<path d="M880 1624 c-25 -8 -56 -23 -70 -34 l-25 -19 55 14 c71 19 249 19 318
1 45 -12 51 -12 42 -1 -7 8 -36 23 -66 35 -65 24 -185 26 -254 4z"/>
</g>
</svg>
