<svg version="1.0" xmlns="http://www.w3.org/2000/svg"
 width="50" viewBox="0 0 304.000000 304.000000">

<g transform="translate(0.000000,304.000000) scale(0.100000,-0.100000)"
fill="#000000" stroke="none">
<path d="M1364 2947 c-33 -13 -82 -38 -107 -57 -44 -31 -111 -109 -135 -155
-68 -135 -56 -326 28 -450 202 -296 653 -241 781 95 79 209 -15 447 -219 547
-71 36 -82 38 -181 40 -91 3 -115 0 -167 -20z"/>
<path d="M1975 2150 c-50 -32 -78 -92 -73 -156 6 -68 29 -102 92 -133 44 -22
54 -23 99 -14 l51 10 181 -159 c99 -87 188 -173 198 -191 13 -25 17 -56 17
-149 l0 -118 61 0 61 0 -4 138 c-4 192 -3 190 -242 400 l-191 168 0 62 c0 68
-17 100 -75 140 -44 29 -131 30 -175 2z"/>
<path d="M1080 2074 c-79 -75 -142 -187 -160 -283 -6 -29 -10 -166 -10 -302
l0 -249 608 0 607 0 -3 259 -3 259 -68 4 c-54 3 -78 10 -117 33 -90 56 -137
159 -118 255 6 28 8 49 5 48 -3 -2 -30 -16 -60 -32 -83 -43 -148 -59 -241 -60
-109 0 -206 29 -296 89 -37 25 -68 45 -70 45 -2 0 -35 -30 -74 -66z"/>
<path d="M864 2012 c-101 -66 -168 -159 -199 -279 -11 -42 -15 -114 -15 -275
l0 -218 84 0 84 0 4 278 c4 271 5 279 32 357 15 44 41 101 57 128 16 26 25 47
20 47 -4 0 -35 -17 -67 -38z"/>
<path d="M2210 1461 l0 -221 85 0 85 0 0 148 0 149 -72 64 c-40 36 -79 69 -85
73 -10 6 -13 -40 -13 -213z"/>
<path d="M91 1137 c-90 -46 -90 -198 0 -244 19 -10 332 -13 1422 -13 1536 0
1443 -4 1480 59 21 36 22 112 1 152 -32 62 50 59 -1481 59 -1090 0 -1403 -3
-1422 -13z"/>
<path d="M384 791 c-9 -9 -3 -268 7 -304 14 -53 84 -122 136 -136 30 -8 320
-11 1010 -9 l968 3 42 24 c24 14 55 42 70 64 27 39 28 44 31 199 l3 158 -1131
2 c-622 2 -1134 1 -1136 -1z"/>
</g>
</svg>
