
<svg version="1.0" xmlns="http://www.w3.org/2000/svg"
 width="60" height="" viewBox="0 0 294.000000 237.000000">

<g transform="translate(0.000000,237.000000) scale(0.100000,-0.100000)"
fill="#000000" stroke="none">
<path d="M829 2025 c-47 -25 -63 -62 -67 -156 l-4 -85 -54 4 c-103 9 -188 -61
-200 -165 -22 -180 212 -283 329 -144 53 63 59 142 18 221 -35 67 -27 237 12
262 7 4 283 8 615 8 589 0 602 0 622 -20 19 -19 20 -33 20 -374 0 -333 -1
-355 -19 -377 l-19 -24 -416 -3 c-229 -1 -416 0 -416 4 0 3 25 42 56 87 53 75
56 82 51 126 -5 44 -2 51 59 138 35 51 64 101 64 112 0 23 -23 43 -41 36 -8
-3 -47 -54 -88 -113 -58 -85 -81 -111 -105 -118 -22 -6 -49 -33 -96 -96 -36
-48 -68 -90 -72 -93 -10 -10 -110 45 -155 86 -22 20 -60 43 -83 50 -36 11 -45
10 -73 -6 -41 -24 -113 -24 -154 0 -28 16 -37 17 -73 6 -50 -15 -104 -62 -133
-115 -21 -40 -22 -52 -22 -336 l0 -295 305 0 305 0 3 218 c1 119 6 217 10 217
5 0 37 -10 72 -21 l63 -22 26 32 26 31 440 0 c491 0 486 -1 532 69 23 34 23
36 23 398 0 403 -2 416 -62 453 -32 19 -48 20 -653 20 -515 -1 -624 -3 -646
-15z m-79 -320 c32 -17 60 -61 60 -95 0 -36 -31 -90 -61 -105 -61 -32 -135
-10 -163 49 -19 40 -20 53 -5 95 22 62 105 89 169 56z m537 -339 c-11 -27
-169 -236 -179 -236 -5 0 -34 7 -64 16 -46 13 -54 19 -54 39 l0 24 46 -19 c25
-11 52 -20 59 -20 8 0 42 39 76 88 34 48 69 95 77 105 18 20 46 23 39 3z
m-635 -67 c41 -11 56 -10 109 6 54 17 64 17 87 4 67 -38 82 -114 82 -416 l0
-183 -241 0 -241 0 4 253 c3 276 4 281 67 335 28 24 44 25 133 1z"/>
<path d="M1084 1766 c-3 -8 -4 -23 -2 -33 3 -17 26 -18 423 -18 l420 0 0 30 0
30 -418 3 c-358 2 -418 0 -423 -12z"/>
<path d="M1551 1572 c-6 -11 -6 -24 0 -35 9 -15 30 -17 183 -17 185 0 205 5
191 50 -6 19 -14 20 -185 20 -162 0 -180 -2 -189 -18z"/>
<path d="M1550 1400 c-8 -15 -6 -24 10 -40 18 -18 33 -20 169 -20 159 0 201 8
201 38 0 38 -18 42 -197 42 -161 0 -173 -1 -183 -20z"/>
<path d="M1176 906 c-97 -59 -115 -187 -38 -270 109 -116 302 -40 302 119 0
135 -149 221 -264 151z m144 -51 c102 -53 60 -215 -55 -215 -38 0 -83 26 -100
60 -53 103 52 208 155 155z"/>
<path d="M1728 910 c-121 -64 -120 -248 2 -310 176 -90 346 130 212 274 -54
57 -144 72 -214 36z m141 -55 c37 -19 65 -77 57 -120 -7 -37 -48 -83 -83 -91
-73 -19 -143 35 -143 110 0 90 89 143 169 101z"/>
<path d="M2285 916 c-39 -17 -70 -52 -90 -98 -20 -49 -19 -84 4 -134 56 -124
231 -139 307 -27 79 117 -6 274 -148 273 -23 -1 -56 -7 -73 -14z m151 -80 c29
-29 34 -41 34 -80 0 -63 -38 -106 -100 -113 -36 -4 -51 -1 -74 18 -64 50 -68
128 -9 179 49 44 103 42 149 -4z"/>
<path d="M1082 553 c-44 -21 -96 -84 -110 -132 -17 -54 -15 -166 2 -180 10 -8
239 -10 847 -9 l834 3 3 90 c2 79 0 96 -21 135 -27 52 -105 110 -147 110 -15
0 -44 -7 -63 -15 -47 -19 -81 -19 -139 2 -62 22 -115 7 -166 -47 l-37 -38 -42
38 c-22 21 -59 44 -82 51 -35 10 -46 10 -80 -6 -42 -19 -94 -17 -147 5 -48 20
-99 5 -153 -45 l-48 -45 -21 29 c-23 31 -96 71 -129 71 -11 0 -34 -7 -49 -15
-36 -19 -101 -19 -134 0 -33 19 -77 18 -118 -2z m101 -58 c47 -19 125 -19 171
0 32 13 40 14 64 1 44 -23 74 -62 87 -113 10 -40 16 -48 36 -48 19 0 25 6 30
36 8 51 39 100 78 123 32 18 35 18 80 3 57 -21 120 -22 167 -2 33 13 40 13 70
-1 42 -20 71 -59 82 -110 10 -48 37 -67 58 -40 8 11 14 30 14 41 0 31 39 86
78 108 30 18 35 18 72 3 51 -20 114 -20 172 0 42 14 49 14 76 0 50 -26 76 -72
80 -143 l4 -63 -791 0 -791 0 0 38 c0 64 18 108 60 146 45 41 53 42 103 21z"/>
</g>
</svg>
